<mxfile host="Electron" agent="Mozilla/5.0 (Windows NT 10.0; Win64; x64) AppleWebKit/537.36 (KHTML, like Gecko) draw.io/28.0.4 Chrome/138.0.7204.97 Electron/37.2.1 Safari/537.36" version="28.0.4">
  <diagram name="第 1 页" id="ArvuRZLibUp1Q2hhUhFh">
    <mxGraphModel dx="1213" dy="828" grid="1" gridSize="10" guides="1" tooltips="1" connect="1" arrows="1" fold="1" page="1" pageScale="1" pageWidth="827" pageHeight="1169" math="0" shadow="0">
      <root>
        <mxCell id="0" />
        <mxCell id="1" parent="0" />
        <mxCell id="o1EXhRtiVlUiiGpmGiVc-7" value="应用" style="text;html=1;align=center;verticalAlign=middle;whiteSpace=wrap;rounded=0;fontSize=15;fontFamily=Helvetica;" vertex="1" parent="1">
          <mxGeometry x="110" y="5" width="60" height="30" as="geometry" />
        </mxCell>
        <mxCell id="o1EXhRtiVlUiiGpmGiVc-11" value="API" style="text;html=1;align=center;verticalAlign=middle;whiteSpace=wrap;rounded=0;fontSize=15;fontFamily=Times New Roman;" vertex="1" parent="1">
          <mxGeometry x="280" y="5" width="60" height="30" as="geometry" />
        </mxCell>
        <mxCell id="o1EXhRtiVlUiiGpmGiVc-15" value="开启平面检测" style="edgeLabel;resizable=0;html=1;;align=left;verticalAlign=bottom;fontSize=15;fontFamily=Helvetica;" connectable="0" vertex="1" parent="1">
          <mxGeometry x="180" y="70" as="geometry" />
        </mxCell>
        <mxCell id="o1EXhRtiVlUiiGpmGiVc-18" value="kit" style="text;html=1;align=center;verticalAlign=middle;whiteSpace=wrap;rounded=0;fontSize=15;fontFamily=Times New Roman;" vertex="1" parent="1">
          <mxGeometry x="660" y="5" width="60" height="30" as="geometry" />
        </mxCell>
        <mxCell id="o1EXhRtiVlUiiGpmGiVc-19" value="" style="rounded=0;whiteSpace=wrap;html=1;" vertex="1" parent="1">
          <mxGeometry x="130" y="70" width="20" height="370" as="geometry" />
        </mxCell>
        <mxCell id="o1EXhRtiVlUiiGpmGiVc-20" value="" style="endArrow=classic;html=1;rounded=0;exitX=0.75;exitY=0;exitDx=0;exitDy=0;entryX=0;entryY=0;entryDx=0;entryDy=0;" edge="1" parent="1" source="o1EXhRtiVlUiiGpmGiVc-19" target="o1EXhRtiVlUiiGpmGiVc-21">
          <mxGeometry width="50" height="50" relative="1" as="geometry">
            <mxPoint x="170" y="200" as="sourcePoint" />
            <mxPoint x="280" y="70" as="targetPoint" />
          </mxGeometry>
        </mxCell>
        <mxCell id="o1EXhRtiVlUiiGpmGiVc-21" value="" style="rounded=0;whiteSpace=wrap;html=1;" vertex="1" parent="1">
          <mxGeometry x="300" y="70" width="20" height="260" as="geometry" />
        </mxCell>
        <mxCell id="o1EXhRtiVlUiiGpmGiVc-23" value="&lt;span style=&quot;text-align: left; white-space: pre; color: rgba(0, 0, 0, 0.9); font-size: 14px;&quot;&gt;AREngineSession arSession;&lt;br&gt;&lt;/span&gt;" style="text;html=1;align=center;verticalAlign=middle;whiteSpace=wrap;rounded=0;fontSize=15;fontFamily=Times New Roman;" vertex="1" parent="1">
          <mxGeometry x="330" y="70" width="190" height="30" as="geometry" />
        </mxCell>
        <mxCell id="o1EXhRtiVlUiiGpmGiVc-25" value="&lt;span style=&quot;color: rgba(0, 0, 0, 0.9); font-size: 14px; text-align: left; white-space: pre; background-color: rgb(255, 255, 255);&quot;&gt;planePublisher.update();&lt;br/&gt;&lt;/span&gt;&lt;span style=&quot;color: rgba(0, 0, 0, 0.9); font-size: 14px; text-align: left; white-space: pre; background-color: rgb(255, 255, 255);&quot;&gt;planePublisher.getAnchors()&lt;/span&gt;&lt;span style=&quot;color: rgba(0, 0, 0, 0.9); font-size: 14px; text-align: left; white-space: pre; background-color: rgb(255, 255, 255);&quot;&gt;&lt;/span&gt;&lt;font face=&quot;Times New Roman&quot;&gt;&lt;span style=&quot;text-align: start; white-space: pre; background-color: rgb(255, 255, 255);&quot;&gt;&lt;/span&gt;&lt;/font&gt;" style="text;html=1;align=center;verticalAlign=middle;whiteSpace=wrap;rounded=0;fontSize=15;fontFamily=Times New Roman;fontColor=default;" vertex="1" parent="1">
          <mxGeometry x="340" y="253.5" width="190" height="50" as="geometry" />
        </mxCell>
        <mxCell id="o1EXhRtiVlUiiGpmGiVc-34" value="&lt;div style=&quot;text-align: left;&quot;&gt;&lt;span style=&quot;background-color: transparent; font-size: 14px; white-space: pre;&quot;&gt;&lt;font&gt;image;viewMat;&lt;/font&gt;&lt;/span&gt;&lt;/div&gt;" style="text;html=1;align=center;verticalAlign=middle;whiteSpace=wrap;rounded=0;fontSize=15;fontFamily=Times New Roman;fontColor=light-dark(#99004D,#FF3399);" vertex="1" parent="1">
          <mxGeometry x="383.25" y="214" width="146.75" height="25" as="geometry" />
        </mxCell>
        <mxCell id="o1EXhRtiVlUiiGpmGiVc-35" value="" style="rounded=0;whiteSpace=wrap;html=1;" vertex="1" parent="1">
          <mxGeometry x="680" y="70" width="20" height="490" as="geometry" />
        </mxCell>
        <mxCell id="o1EXhRtiVlUiiGpmGiVc-36" value="&lt;span style=&quot;color: rgba(0, 0, 0, 0.9); font-family: &amp;quot;Times New Roman&amp;quot;; font-size: 14px; font-style: normal; font-variant-ligatures: normal; font-variant-caps: normal; font-weight: 400; letter-spacing: normal; orphans: 2; text-align: left; text-indent: 0px; text-transform: none; widows: 2; word-spacing: 0px; -webkit-text-stroke-width: 0px; white-space: pre; text-decoration-thickness: initial; text-decoration-style: initial; text-decoration-color: initial; float: none; display: inline !important;&quot;&gt;PlanePublisher planePublisher;&lt;/span&gt;&lt;div&gt;&lt;span style=&quot;color: rgba(0, 0, 0, 0.9); font-family: &amp;quot;Times New Roman&amp;quot;; font-size: 14px; font-style: normal; font-variant-ligatures: normal; font-variant-caps: normal; font-weight: 400; letter-spacing: normal; orphans: 2; text-align: left; text-indent: 0px; text-transform: none; widows: 2; word-spacing: 0px; -webkit-text-stroke-width: 0px; white-space: pre; text-decoration-thickness: initial; text-decoration-style: initial; text-decoration-color: initial; float: none; display: inline !important;&quot;&gt;&lt;font face=&quot;Times New Roman&quot; style=&quot;color: rgb(0, 0, 0); font-size: 15px; text-align: center; white-space: normal;&quot;&gt;&lt;span style=&quot;text-align: start; white-space: pre;&quot;&gt;arSession.&lt;/span&gt;&lt;span class=&quot;hljs-built_in&quot; style=&quot;margin: 0px; padding: 0px; border: 0px; font-variant-numeric: inherit; font-variant-east-asian: inherit; font-variant-alternates: inherit; font-variant-position: inherit; font-variant-emoji: inherit; font-stretch: inherit; line-height: inherit; font-optical-sizing: inherit; font-size-adjust: inherit; font-kerning: inherit; font-feature-settings: inherit; font-variation-settings: inherit; vertical-align: baseline; text-align: start; white-space: pre;&quot;&gt;runPublisher&lt;/span&gt;&lt;span style=&quot;text-align: start; white-space: pre;&quot;&gt;(&lt;/span&gt;&lt;/font&gt;&lt;span style=&quot;color: rgba(0, 0, 0, 0.9);&quot;&gt;planePublisher&lt;/span&gt;&lt;font face=&quot;Times New Roman&quot; style=&quot;color: rgb(0, 0, 0); font-size: 15px; text-align: center; white-space: normal;&quot;&gt;&lt;span style=&quot;text-align: start; white-space: pre;&quot;&gt;);&lt;/span&gt;&lt;/font&gt;&lt;/span&gt;&lt;/div&gt;" style="text;whiteSpace=wrap;html=1;labelBackgroundColor=default;" vertex="1" parent="1">
          <mxGeometry x="340" y="160" width="240" height="54" as="geometry" />
        </mxCell>
        <mxCell id="o1EXhRtiVlUiiGpmGiVc-37" value="&lt;span style=&quot;color: rgb(153, 0, 77); font-family: &amp;quot;Times New Roman&amp;quot;; font-size: 14px; font-style: normal; font-variant-ligatures: normal; font-variant-caps: normal; font-weight: 400; letter-spacing: normal; orphans: 2; text-align: left; text-indent: 0px; text-transform: none; widows: 2; word-spacing: 0px; -webkit-text-stroke-width: 0px; white-space: pre; text-decoration-thickness: initial; text-decoration-style: initial; text-decoration-color: initial; float: none; display: inline !important;&quot;&gt;projectionMat&lt;/span&gt;" style="text;whiteSpace=wrap;html=1;labelBackgroundColor=default;" vertex="1" parent="1">
          <mxGeometry x="380" y="100" width="90" height="30" as="geometry" />
        </mxCell>
        <mxCell id="o1EXhRtiVlUiiGpmGiVc-38" value="" style="endArrow=classic;html=1;rounded=0;entryX=0.75;entryY=0.388;entryDx=0;entryDy=0;entryPerimeter=0;fillColor=#f8cecc;strokeColor=light-dark(#99004D,#99004D);" edge="1" parent="1">
          <mxGeometry width="50" height="50" relative="1" as="geometry">
            <mxPoint x="670" y="130" as="sourcePoint" />
            <mxPoint x="319.51" y="130" as="targetPoint" />
          </mxGeometry>
        </mxCell>
        <mxCell id="o1EXhRtiVlUiiGpmGiVc-31" value="" style="endArrow=classic;html=1;rounded=0;fillColor=#f8cecc;strokeColor=light-dark(#99004D,#99004D);" edge="1" parent="1">
          <mxGeometry width="50" height="50" relative="1" as="geometry">
            <mxPoint x="670" y="240" as="sourcePoint" />
            <mxPoint x="320" y="240" as="targetPoint" />
          </mxGeometry>
        </mxCell>
        <mxCell id="o1EXhRtiVlUiiGpmGiVc-44" value="&lt;div style=&quot;text-align: left;&quot;&gt;&lt;span style=&quot;background-color: transparent; font-size: 14px; white-space: pre;&quot;&gt;&lt;font&gt;planeAnchors&lt;/font&gt;&lt;/span&gt;&lt;/div&gt;" style="text;html=1;align=center;verticalAlign=middle;whiteSpace=wrap;rounded=0;fontSize=15;fontFamily=Times New Roman;fontColor=light-dark(#99004D,#FF3399);" vertex="1" parent="1">
          <mxGeometry x="383.25" y="302.5" width="86.75" height="25" as="geometry" />
        </mxCell>
        <mxCell id="o1EXhRtiVlUiiGpmGiVc-45" value="" style="endArrow=classic;html=1;rounded=0;fillColor=#f8cecc;strokeColor=light-dark(#99004D,#99004D);" edge="1" parent="1">
          <mxGeometry width="50" height="50" relative="1" as="geometry">
            <mxPoint x="670" y="330" as="sourcePoint" />
            <mxPoint x="320" y="329.5" as="targetPoint" />
          </mxGeometry>
        </mxCell>
        <mxCell id="o1EXhRtiVlUiiGpmGiVc-46" value="" style="endArrow=classic;html=1;rounded=0;strokeColor=light-dark(#99004D,#99004D);" edge="1" parent="1">
          <mxGeometry width="50" height="50" relative="1" as="geometry">
            <mxPoint x="300" y="330" as="sourcePoint" />
            <mxPoint x="150" y="330" as="targetPoint" />
          </mxGeometry>
        </mxCell>
        <mxCell id="o1EXhRtiVlUiiGpmGiVc-47" value="&lt;font face=&quot;Times New Roman&quot; color=&quot;#99004d&quot;&gt;&lt;span style=&quot;font-size: 14px; white-space: pre;&quot;&gt;渲染所需数据&lt;/span&gt;&lt;/font&gt;" style="text;whiteSpace=wrap;html=1;labelBackgroundColor=default;" vertex="1" parent="1">
          <mxGeometry x="190" y="300" width="90" height="30" as="geometry" />
        </mxCell>
        <mxCell id="o1EXhRtiVlUiiGpmGiVc-48" value="" style="endArrow=classic;html=1;rounded=0;exitX=0.75;exitY=0;exitDx=0;exitDy=0;entryX=0;entryY=0;entryDx=0;entryDy=0;" edge="1" parent="1">
          <mxGeometry width="50" height="50" relative="1" as="geometry">
            <mxPoint x="520" y="84.5" as="sourcePoint" />
            <mxPoint x="675" y="84.5" as="targetPoint" />
          </mxGeometry>
        </mxCell>
        <mxCell id="o1EXhRtiVlUiiGpmGiVc-49" value="" style="endArrow=classic;html=1;rounded=0;exitX=0.75;exitY=0;exitDx=0;exitDy=0;" edge="1" parent="1">
          <mxGeometry width="50" height="50" relative="1" as="geometry">
            <mxPoint x="580" y="180" as="sourcePoint" />
            <mxPoint x="675" y="180" as="targetPoint" />
          </mxGeometry>
        </mxCell>
        <mxCell id="o1EXhRtiVlUiiGpmGiVc-50" value="" style="endArrow=classic;html=1;rounded=0;exitX=0.75;exitY=0;exitDx=0;exitDy=0;" edge="1" parent="1">
          <mxGeometry width="50" height="50" relative="1" as="geometry">
            <mxPoint x="520" y="278" as="sourcePoint" />
            <mxPoint x="675" y="278" as="targetPoint" />
          </mxGeometry>
        </mxCell>
        <mxCell id="o1EXhRtiVlUiiGpmGiVc-54" value="" style="endArrow=classic;html=1;rounded=0;" edge="1" parent="1">
          <mxGeometry width="50" height="50" relative="1" as="geometry">
            <mxPoint x="200" y="420" as="sourcePoint" />
            <mxPoint x="150" y="420" as="targetPoint" />
          </mxGeometry>
        </mxCell>
        <mxCell id="o1EXhRtiVlUiiGpmGiVc-55" value="" style="endArrow=none;html=1;rounded=0;" edge="1" parent="1">
          <mxGeometry width="50" height="50" relative="1" as="geometry">
            <mxPoint x="200" y="420" as="sourcePoint" />
            <mxPoint x="200" y="390" as="targetPoint" />
          </mxGeometry>
        </mxCell>
        <mxCell id="o1EXhRtiVlUiiGpmGiVc-56" value="" style="endArrow=none;html=1;rounded=0;" edge="1" parent="1">
          <mxGeometry width="50" height="50" relative="1" as="geometry">
            <mxPoint x="200" y="390" as="sourcePoint" />
            <mxPoint x="160" y="390" as="targetPoint" />
          </mxGeometry>
        </mxCell>
        <mxCell id="o1EXhRtiVlUiiGpmGiVc-57" value="渲染" style="edgeLabel;resizable=0;html=1;;align=left;verticalAlign=bottom;fontSize=15;fontFamily=Helvetica;" connectable="0" vertex="1" parent="1">
          <mxGeometry x="160" y="390" as="geometry" />
        </mxCell>
      </root>
    </mxGraphModel>
  </diagram>
</mxfile>
